<?xml version="1.0" encoding="utf-8"?>
<!-- Generator: Adobe Illustrator 27.0.0, SVG Export Plug-In . SVG Version: 6.00 Build 0)  -->
<svg version="1.1" id="Layer_1" xmlns="http://www.w3.org/2000/svg" xmlns:xlink="http://www.w3.org/1999/xlink" x="0px" y="0px"
	 viewBox="0 0 1024 768" style="enable-background:new 0 0 1024 768;" xml:space="preserve">
<style type="text/css">
	.st0{fill-rule:evenodd;clip-rule:evenodd;fill:#F2EED8;}
	.st1{fill-rule:evenodd;clip-rule:evenodd;fill:#011C40;}
</style>
<path class="st0" d="M942.4,328.8c-0.2-7.5-0.5-15.2-2.4-22.5c-1.3-5.1-4.6-14.3-10.8-15.2c-9.3-1.3-14.5,17.1-17.1,23.5
	c-0.5-7.5-0.1-15.4-2.9-22.5c-2.2-5.7-8-11.1-12.9-4.7c-4.4,5.7-5.2,14-6.4,20.9c-1.5,8.9-2.4,17.8-3.5,26.7
	c-4.3-8.2-5-17.7-8.4-26.3c-3.2-8.1-8.2-15.8-13-23c-3.9-5.9-8.7-11.4-14.9-15c-5.4-3.1-14.8-6.5-19.9-1.3
	c-4.3,4.3-3.6,10.1-3.4,15.6c0.1,2.4,0.5,4.1-1.7,5.3c-1.1,0.6-2.7,0.3-3.9,0.6c-1.9,0.5-3.3,1.4-4.9,2.6
	c-11.1,8.2-16.1,23-17.7,36.2c-2,16.7,4.5,31.1,10.1,46.4c0.9,2.4,3.7,7.6,3.3,10.3c-0.4,3-4.2,3.1-6.7,3.1
	c-7.6,0.2-15.6-0.4-23.2-1.1c-18.1-1.7-36.1-10.4-52.3-18.2c-3-1.4-7.1-2.2-9.5-4.5c-2.3-2.1-2.9-5.5-4.8-7.9
	c-4.8-5.9-7.9-11-14.9-14.5c-7.2-3.6-14.6-7-21.6-11c-8.7-4.9-16.7-11.2-25-16.7c-15.5-10.2-30.8-21.5-47.2-30.2
	c-7.6-4-16.1-4.7-24-8c-7.7-3.2-17.2-3.2-25.2-1.2c-3.9,1-6.6,3.3-10.2,4.9c-4.2,1.8-7.7-0.2-11.4-2.3c-5.7-3.3-11.3-8.6-3.2-12.2
	c2.7-1.2,6.2-1.7,8.6-3.5c2.5-2,4.6-5.7,6.7-8.3c4.6-5.6,7.4-12.1,14.1-15.6c7.5-3.9,16.3-4.9,24.3-7.4c8.6-2.7,17.1-6,25.5-9.2
	c15.3-5.7,31.1-11.9,42.1-24.6c9.5-10.9,13.6-25,13.2-39.3c-0.8-29.2-16.4-58.9-38.9-77.2c-27.5-22.4-62.6-29.9-97.4-29.5
	c-16.3,0.2-35.8,2.3-49.5,12.2c-11.8,8.6-13.7,23.6-12,37.1c0.7,5.5,3.1,12.7-0.7,17.6c-2.2,2.7-6.1,3.4-9,5.1
	c-3.7,2.1-6.9,4.2-11.1,5.3c-17.7,4.8-36.2,3.1-54.3,2.8c-30.1-0.4-60.9,7.7-83.3,28.9c-18.1,17.1-23.5,49.4-1.5,66
	c17.9,13.5,45.9,12,66.9,9.6c6.5-0.7,11-1.8,11,6.2c0,8.7-1.4,17.8,0.8,26.4c3.5,13.5,16.5,13.8,27.9,10.9c6-1.5,11.9-3.8,17.6-6.2
	c8.4-3.5,16.1-8.7,24.5-12.3c5.6-2.4,9.9,5.4,14.9,0c0.9-1,1.1-2.5,2.5-3c2.2-0.8,5.8,2,7.8,2.9c2.9,1.3,5.8,2.3,6.9,5.5
	c1.1,3,0.6,7.7-0.4,10.6c-2.2,6.4-8.2,5.1-13.7,4.7c-9.6-0.7-19.1-2.3-28.6-3c-8.6-0.6-16.6,2-24,6.2c-15.5,8.9-28.3,23-41.7,34.6
	c-6.9,6-13.6,12.5-21.2,17.7c-3.3,2.3-6.8,4.3-9.7,7.2c-2.8,2.8-3.1,5.3-4.1,9c-1.7,6.6-10.3,9.8-15.6,13.3
	c-7.6,4.9-15.6,8.4-24.1,11.4c-18,6.4-36.1,10.9-54.8,14.2c-9.2,1.6-18.3,2.7-27.6,3.6c-8,0.8-16.5,3.2-24.5,1.2
	c2.3-3.7,6.4-6,9.6-8.9c4.1-3.7,7.6-8.1,10.7-12.7c6-8.9,10.3-18.4,11.2-29.2c0.9-9.7-0.1-21.3-6-29.5c-2-2.8-6-3.6-7.8-6.2
	c-1.8-2.5-1.1-6.9-2.1-9.9c-2.5-7.5-10-16.8-16.5-21.2c-7.1-4.7-17.5-6.5-25.7-4c-15.2,4.6-24.6,20.8-31.5,34
	c-3.8-8,2.6-19.9-4.9-26.4c-6.3-5.5-11.2,5.2-13.3,9.8c-9.8,21.5-12.1,44.3-16.2,67.3c-1.7-1.7-0.8-5.9-0.7-7.9
	c0.3-3.7,0.3-7.3,0.3-11c0-9.3,1.8-18.7,1-28c-0.5-5.4-2.2-16.8-10-15c-6.6,1.5-10.8,10.9-12.9,16.6c-3,8.2-3.7,16.4-3.5,25.1
	c0.2,9.6-1.6,19.1-2.1,28.7c-0.9,18.6,0,37.1,5.3,55.1c8.8,29.5,28.9,53.9,55.8,68.7c14.8,8.1,31.2,13.3,48.1,14.4
	c9.1,0.6,18-0.5,27.1-1.4c9-0.9,18-1.4,26.9-2.5c19.9-2.4,39.3-8.7,57.4-17.2c9.5-4.5,18.5-9.9,27.8-14.7c3.8-1.9,6.3-4.3,9.5-7
	c3.2-2.6,4.1-2.8,7.7-2.8c-1.1-2.8,2-3.7,3.4-5.5c-0.1,0.9-0.2,1.7-0.2,2.6c1.1-2.3,2-2.2,2.9,0.1c0.9-2.6,1.5-5.3,2.6-7.8
	c4.1,2.1,3.8,7.1,9.3,3.4c4.5-3,8.7-6.5,13.4-9.4c10.6-6.7,19.7-15.3,30.2-21.9c0,6.4,0.5,12.9-0.4,19.3c-0.8,6.1-3.1,11.7-4.9,17.5
	c-3.3,10.7-3.5,22.2-7.2,32.8c-1.5,4.4-5.5,8.1-6.6,12.4c-1.2,4.4,1.5,7.9-3,10.7c-3.2,2-7.1,2.9-10.6,4.1
	c-5.4,1.9-10.4,4.5-15.6,6.7c-24.4,10.5-48.3,21.1-70.9,35.2c-21.5,13.3-43.3,27.1-63,43c-17.1,13.8-34.4,31.6-38.6,54
	c-4,21.8,6.7,45.2,28.4,52.3c11.3,3.7,24,3.3,35.7,3.4c12.6,0.2,26-2.9,38.4-5.1c13.1-2.3,26-6,39.1-8c12.6-2,24.1-6.4,36.5-9.2
	c13.2-2.9,26.7-4.5,40-7.1c6-1.2,11.8-2.9,17.8-4c6.6-1.2,13.2-1.6,19.7-3.2c12.6-3.1,24.7-8,37.3-10.9c5.7-1.3,11.3-3,17-4.2
	c5.2-1.1,9.3-4.1,14.6-1.6c4.2,2,7.6,5.3,11.6,7.6c5.2,3,10.7,5.7,16.1,8.3c10.9,5.2,22.2,8.9,33.6,12.8c12,4.1,23.7,8.8,36.1,11.6
	c12.7,2.8,25.7,3.6,38.5,5.8c26.2,4.5,52.3,6.6,78.9,6.7c13.5,0.1,26.9-1.5,40.4-1.3c11.9,0.2,22.2,2.8,33.1-3.5
	c17.4-10.1,37.5-25.3,37.1-47.4c-0.4-20-12.4-39.1-23.7-54.9c-13.7-19.2-33.2-32.7-52.3-45.9c-20.4-14.1-43.2-23.8-64.7-36.1
	c-11-6.3-21-13.1-32.9-17.5c-5.7-2.1-11.2-4.6-16.8-6.9c-4.5-1.9-11-2.9-14.9-5.9c-2.4-1.9-2.6-4.8-3.3-7.7
	c-1.4-6.3-3.6-12.3-5.8-18.3c-4.1-11.7-6.9-23.7-8.7-36c-1.7-11.7-5.5-23.9-3.5-35.8c12.8,12.4,26,24.4,39.2,36.4
	c4.9,4.5,9.8,9.2,14.7,13.7c3.7,3.4,8.4,8.4,13.5,9.4c6.6,1.3,4.2-6,8.7-7.2c2.8-0.7,11.1,6.4,13.3,7.8
	c13.9,8.8,29.3,14.4,44.6,20.4c16,6.3,32.5,11.9,49.8,13.5c16,1.5,32.2-0.4,47.6-4.8c30.6-8.7,53.2-29.2,69.7-55.8
	C929.8,400.5,943.5,365,942.4,328.8z M569.8,143.2c0,0.3,0,0.5-0.1,0.6C569.7,143.5,569.8,143.4,569.8,143.2z M483.6,77.3
	c-0.1,0-0.1-0.1-0.2-0.2C483.4,77.1,483.5,77.1,483.6,77.3z M198,354.5c-2.6,6.4-7.7,13.6-13.2,17.7c-11.3,8.5-20.9-1.9-22.5-13.3
	c-1.6-11.9,1.6-26.5,11.9-33.9c6.1-4.4,12.1-4.1,19.2-2.6c1.7,0.3,4.4,0.2,5.3,1.9c0.2,0.4,0,5.4,0.2,5.4
	C199.3,337.9,201.2,346.6,198,354.5z M851.2,375.4c-9.4,3.8-14.6-9.7-17-16.4c-5.2-14.7-5.2-30.3-1-45.2c0.7-2.3,1.2-4.7,1.8-7.1
	c9.4,10.7,17.7,25.1,21.4,38.9C858.9,354.6,862.7,370.8,851.2,375.4z"/>
<path id="ink-shape" class="st1" d="M932.6,358.1c-12.6,47.7-37.8,99.7-88.7,114.8c-12.4,3.7-24.4,6.5-37.3,5.1
	c-1.2-0.1-2.2,0-3.4,0.1c-2.1,0-0.3,0.8-2.6,0.1c-1.8-0.6-3.5-2-5.4-2.6c-5-1.7-10.4-2-15.6-3.3c-12.6-3.3-25.6-7.3-37.8-11.9
	c-5.8-2.1-11-5.1-16.4-7.9c-5.5-2.9-11.3-4.7-16.9-7.4c-4.4-2.1-11.9-4.8-15-8.8c-3.3-4.2,1.3-13.2,2.6-17.6
	c4.4-15.2,9.7-30.2,13-45.7c11.5,13.3,27.5,21.6,44,26.9c9,2.9,18.2,5,27.5,6.3c8.5,1.2,17.6,2.6,26.1,0.9c6.4-1.3,14.4-4.2,19-9.1
	c1.6-1.7,3.6-4.9,2.7-7.5c-1.2-3.2-4.5-1.7-6.4-4.1c-1.6-2.1-1.3-7-1.9-9.5c-0.9-4.5-2.1-8.9-3.6-13.2c-2.9-8.4-6.6-16.9-7.4-25.8
	c-0.8-7.8,1-15.1,4.9-21.9c1.8-3.2,6.4-11.9,10.9-11.5c4.9,0.4-1.7,21.2-1.9,25.4c-0.9,16.8,1.4,34.8,10,49.5
	c3.3,5.6,8.1,12.2,15.1,12.9c7.5,0.7,13.5-5.1,17.1-11.1c8.7-14.5,4.3-34.4-0.1-49.7c-5.4-18.7-19.5-31.5-28.4-48.3
	c13.3,1.3,20.4,9.8,27.2,20.5c7.5,11.8,13.4,26,16.2,39.7c1.5,6.9,0.5,13.9,0.5,20.9c0,2.3,0,10.9,3.8,10.6c4.1-0.4,5.4-10,6-13
	c1.4-6.8,2.8-13.5,4-20.4c2.1-12,3-24.4,5.5-36.3c0.4-2,1.3-7.6,4.3-6.1c2.3,1.2,2,9.8,2,11.9c0.2,5,0.5,9.9,0.5,14.9
	c0.1,7.4-1.4,15-0.7,22.3c0.5,4.8,3,10.1,6.2,3.6c3.2-6.4,3.8-14.4,5.6-21.3c1.9-7.2,3.8-14.6,7.7-21c1.1-1.8,2.3-4.6,4.7-3.8
	c1.8,0.6,3.1,4.8,3.6,6.2c2.5,6.6,2,14,1.9,21C935.7,341.4,934.8,349.8,932.6,358.1L932.6,358.1z M687.8,370.4
	c-0.7-0.2-3.5-0.5-4.2-0.5c-0.8-0.1,0.1-1.6-1.9-1.2c0.4,1,1.1,1.6,2.1,1.9c-3,1-5.2-1.5-7.3-1.8c-2-0.3-2.1,0-4,2.1
	c-2.1-2.6-1.7-1-3.4-1c-0.6,0-0.7,1-1.7,0.8c-0.9-0.1-1-1.5-1.5-1.6c-2.9-0.9-5.8,3.5-9.1-0.3c-0.8,4-9.9-1-13.3-0.3
	c-3.7,0.7-2.1,2-5-0.2c-2.8-2.1-2-0.7-5.3,1c0.1,0-1.8,1.3-1.7,1.3c-2.3-0.3-2.1-2.6-5-2.5c-3,0.1-4.3,2.5-7.1-0.4
	c-0.6,2.2-0.7,1.2-2.2,1.8c-0.8,0.2-1.5,0-2.1-0.6c-0.2,0.6-0.6,1-1.2,1.1c-1.6,0.1-4.5,0.4-5.9-0.4c-2.1-1.1-0.4-1.6-1.9-2.8
	c-0.7,3.5-2.1,2.7-5.1,3.1c-2.3,0.2-2.8-0.5-5-0.8c-2.2-0.3-5,0.5-7.1,0.9c-0.9,0.1-2.1,0.8-2.9,0.5c-0.8-0.2-1.2-0.8-1.6-1
	c-0.6-0.2-0.5-0.7-1.5-1c-0.7-0.2-1.9,0.5-2.6,0.6c-5,0.8-9.7,0.8-14.4-1.1c2.3,4.1-5.4,1.9-6.8,0.2c-1.7,2.7-3.8,0.8-7.3,1
	c-3.4,0.2-8.4,1.2-9.8-3c-0.3,0.9-2.2,3.3-2.9,3.7c-2.2,1.1-2.5-0.5-4.5-1.2c-2.8-0.9-2.2,0.8-3.9,1.1c-2.9,0.6-4.5-1.5-7.1-2.6
	c-0.1,1.7-0.2,2.7-1.6,3.8c-1.3-4.7-5.9,0.4-5.1-5.9c-1.8,1.1-4.3,2-4.8,4.4c3-0.8,0.3,1.1,0.2,1.2c-0.4,0.2-1.7-1.6-2-1.9
	c-0.1,0.9-0.2,1.7-0.2,2.6c-1.2-0.6-2.3-1.6-3.2-2.2c-0.9-0.5,0.4-1.5-1.1-1.5c-0.8,0-1.6,1.6-2.4,1.8c-1.2,0.2-0.6-1.5-1.2-1.5
	c-0.8,0.1-2.1,1.2-2.7,1.2c-1.9-0.1-0.6-1-2.1-1.4c-2.7-0.7-2.5,1-4.4,1.6c-4.4,1.4-3.9-5.2-8.4-0.8c-1.1,1.1-1.7,2.7-3.2,2.6
	c-3-0.2-2-3.8-1.3-5.5c0.6,0.3-11,6.3-10.9,6.1c0.1-1.4,1.9-2.5,0.3-3.8c-1.3,2.9-2.7,2.9-5.8,3.5c-1.5,0.3-1.8,0.6-3.4,0
	c-1-0.4-1.7-2-2.7-2.1c0.1,0-1.7,1.4-2,1.6c-1.7,0.8-2.7-0.1-4.4,0.2c-1.4,0.3-1.9,1.5-3.3,1.1c-1.9-0.4-0.8-2.6-3.3-2
	c-0.9,0.2-1.4,1.9-2.8,2.2c-2.1,0.5-4.8-0.5-7,0.1c-1.8,0.4-3.1,0.6-4.7,0.7c-1.3,0.1-0.7-0.9-3.1,0.2l-1-2.5
	c-1.2,1.1-2.3,2.1-3.5,3.2c-0.2-0.9-0.4-1.9-0.4-2.9c-1.7,1.7-3.9,2-6.3,2.2c-2.5,0.2-4.4,0.7-6.9,1.2c-0.8,0.1-2.8,0.4-3.4,0.1
	c0.1,0-1.2-0.5-0.8-0.4c-0.2-0.3-0.3-0.7-0.5-1c-0.2-1-0.9-1-2.1-0.1c-0.6-0.1-1.8-0.9-2.4-0.7c-1.6,0.5-1.4,1.8-3,1.6
	c-1-0.1-1.6-1.6-2.6-1.7c-1.6-0.2-3.1,1.7-4.5,2.1c4.5-1.2-5.8-0.3-2.6-0.2c-2.1-0.1-4.3-0.2-6.2,0.8c-1.1-0.7,0.2-2.2-0.9-2.8
	c-1-0.6-1.1,0.9-1.2,0.9c0.6-0.2,0.3,1.1-0.3,1.3c-1.9,0.7-3.5-1.1-3.6-2.8c-1.6,2.5-2.1,1.5-4.5,1.6c-2.4,0.2-4.4,1.4-6.8,1.4
	c-4.7,0-7.9-1.7-9.5-5.9c5,0.6,10.1-2.6,15-1.9c1.6,0.3,2.6,1.5,4,1.2c1.7-0.3,3-2.2,5.2-2.4c4.9-0.5,9.8,0,14.8-0.8
	c5.9-0.9,12.1-1.4,18.1-1c4.6,0.3,8.4-1.4,13.1-1.8c6.1-0.4,12.2-0.5,18.3-0.8c6.2-0.3,13-1.3,19.2-1c1.9,0.1,3.6,0.3,5.5,0.2
	c0.8,0,1.6-0.6,2.4-0.5c1.1,0.1,1.6,1.2,2.8,1.2c2-0.1,4.1-1.7,6.4-1.7c3.8-0.1,7.7-0.1,11.5-0.3c3.4-0.2,7-1,10.4-0.9
	c2.4,0,3,2.1,4.4,2.3c2.5,0.4,15.1-6.8,16.2-0.4c6.6-4.5,15.4-0.7,22.7-1.5c9.4-1.1,19-0.1,28.4-0.5c9.6-0.4,19.5,0,29.1,0.9
	c4,0.4,7.8,0.7,11.8,0.5c1.8-0.1,3.8-0.6,5.6-0.1c0.4,0.1,3.7,2.4,3.3,2.5c1.8-1.6,0.6-1.9,3.7-1.9c2.4-0.1,4.7,0.5,7.2,0.6
	c4.4,0.3,8.7-0.3,13.1-0.2c3.6,0.1,7.2,0.6,10.8,0.7c3.9,0,8.6,0.1,11.4,3.3c-0.3-1-0.6-2-0.9-3c4.4,0.3,8.7,1.9,13.2,1.2
	c-1.1,1.1-2.3,2-2.7,3.5c2.4-0.3,4-2,6.5-2c2.1,0,2.6,1,4.8-0.3c0.3,1.7,0.5,3.4,0.8,5c3.1-0.7,1.1-3,1.3-5.1
	c2.5,0.8,4.6-0.1,3.7,3.5C693.9,369.9,690.4,371.3,687.8,370.4L687.8,370.4z M683.4,401.5c-1.1,3-10.4,1.3-12.6,1
	c-2.9-0.4-6.1-1.1-8.7-1.4c-0.3-0.4-0.7-0.8-1.1-1.1c-0.3,0.5-0.7,0.8-1.3,1c-1.2,0.3-1.2,1.5-2.8,1.2c-0.1,1.8,1.2,0.8,2.2,1.5
	c-2.5,1.7-1.3-0.3-2.7-0.2c-0.3-0.5-0.8-0.7-1.4-0.6c-0.8,0.2-1.5,0.5-2.2,1c-0.6,0.7-1.1,0.7-1.6,0.1c-0.4-0.4-0.9-0.7-1.5-0.8
	c-2.4,0.4-3.1,1.5-5.9,1.3c-3.9-0.3-8.1,0.8-12,0.2c-2.4-0.3-6.4-4.1-7.5-0.4c-1.7-2.7-4.3-4.6-5.9-7.3c7.4-0.4,14.7-0.9,22.1-1.2
	c6.5-0.2,13.5,0.5,19.5,0.2c5.6-0.3,11.6-0.9,17.4-1.4C683.6,394,685.6,395.3,683.4,401.5L683.4,401.5z M491.4,401.9
	c2.7,0.7,5.2-0.9,7.8-0.4c0.9,0.2,2.6,1.7,3,1.8c0.7,0.1,2.8-1.5,3.7-1.7c5.7-1.3,12.6-1.2,18.3-0.4c3,0.4,3.5-1,6.1-1.6
	c2.7-0.7,6.6-0.2,9.5-0.4c6.8-0.5,13.6-0.1,20.3-0.6c6.9-0.5,13.8-0.8,20.7-1.1c4.7-0.2,16-2.9,19.9,0.6c3.2,2.9-0.9,7.9-4.1,9
	c-2.4,0.9-3.6-0.9-5.3-0.8c-2,0.2-1.3,2.6-3.1,0.4c-1.1,2.2-8.2,1.3-10.2,1.4c-4.4,0.3-8.2,1.2-11.2-2.9c0.2,1.2,0.4,2.4,0.6,3.6
	c-4-2.1-8.3-1.4-11.7-0.7c-1.7,0.4-7,2.9-8.8,1.8c-1.3-0.8,1-2-1.2-2.7c-1.1-0.3-3.1,1.5-4.5,1.4c-3.8-0.3-2.7-2.8-6.5,0.4
	c-1.3-1.1-1.7-3-1.5-4.6c-2.7,2.3-2.5,6.2-7.4,5.5c-1.8-0.3-2.2-2.1-3.1-2.5c-2-0.7-2.2,0.6-4,1.6c-0.7,0.4-1.5,1-2.2,1.1
	c-1.6,0.2-1.8-0.6-2.1-0.5c-1.1,0.1-2.4,0.7-3.7,0.3c-1.1-0.3-1.5-2.3-3.5-1.9c-1.9,0.4-1.9,1.7-1.6,3.7c-1.9-0.2-3-1.2-4.4-2.4
	c-1.4,3.3-4.4,0.6-6.1,3.4c-2.2-2.6-3.5-1.9-6.2-4.4c0.1,1,0.3,2.1,0.4,3.1c-2.1-0.4-3-1.9-4.8,0.1c-1.7-3.2-7,1.4-9.7-1.7
	c-1.2,3.9-9.1,3-12.5,3.1c-3,0.1-5.2-0.2-8.1,0.5c-2.6,0.6-6.1,1.2-8.5,1c-1.6-0.2-3.3-0.5-5.3-0.3c-2.8,0.3-5.3,1.8-8.2,1.1
	c-4.4-1-7.1-6.8-2.2-9.4c3.4-1.7,9.4-1.1,13.1-1.4c6.1-0.5,13-1.7,19.2-1.1c4.8,0.4,9.2-0.7,14-1.2c3.7-0.4,9.7-1,12.1,2.6
	C489.5,403.6,489.4,401.4,491.4,401.9L491.4,401.9z M424.2,451.9c-0.7-3.3,27.4-5.1,30.2-5.3c5.8-0.5,11.7-0.8,17.6-0.9
	c4.8-0.1,9.3,0.8,14.1,0.1c4.5-0.7,9.9-2.1,13.8,1.1c0.6-4.4,17.5-2.2,20.7-2.2c14,0.1,27.4,0.1,40.9-0.8c7.7-0.5,15.9-1.2,23.7-0.8
	c3.5,0.2,6.3,1.1,9.8,0.3c2.3-0.5,4.7-1.6,6.9-0.1c2.5,1.8,3.6,8,1.9,10.5c-1.3,1.9-2.4,1.7-4.4,1.3c-3.1-0.5-5.4-1.2-8.6,0.1
	c0.5-0.2-2.1,0.4-1.9,0.4c-3.6,0.3-8.5,2.8-11.6-0.1c1.2,0.2,3.1-2,1.5-2.2c-1.2-0.1-1.9,1.1-2.8,1.5c-3.1,1.4-4.8,1-6.6-2
	c-3.8,3.3-4.2,2.4-5.9-1.7c-1.3,1-1.6,3.3-2.6,4.1c-0.1,0.1,0.5,1.5-0.3,1.5c-0.7-0.1-0.9-1.2-1.4-1.2c-0.3-0.1-0.5-1-0.8-1.1
	c-0.3-0.1-0.7,0.6-1.1,0.5c-1,0-4,2.2-2.9-0.9c-1.6,2-2.3,0.7-2.8-1.1c-1.8,1.4-3.6,2.8-5.5,4.1c-0.8-2.4-2.3-1.7-4.1-0.9
	c0.6-1.6,0.2-3.2-1.2-2c-0.8,0.7-1.3,2.7-2.2,3.6c-3.3-3.4-4.5-2.4-9.1-2c-1.8,0.2-3.9,0.5-5.5-0.6c-1.4-0.9-2.2-4.3-4.5-1.6
	c0.5-0.6-0.3,4.1-0.4,4.8c-1-0.7-1.9-1.6-2.6-2.6c-1.4,2.7-4.9,0.3-7.8,0.8c-4.6,0.9-9.3,2.3-13.4-1.1c-0.3,1.1-3.6,2.5-3.6,2.5
	c0.2-2,1.4-1.3-1.1-1.6c-0.5-0.1-1,0.8-1.4,0.9c-1.5,0.3-3.3,0-4.8,0c-6.3-0.2-12,1.2-18.2,1.7c-2.1,0.2-4.6,0.5-6.5-0.3
	c-2-0.8-2-1.7-4-1.2c0.6-0.2-1.3,1.9-1.2,1.8c-0.3,0.2-1.4-0.8-1.8-0.7c-0.1,0.4-0.2,0.9-0.4,1.3c-0.5-0.1-1-0.1-1.5-0.2
	c-1.3,0.2-2.6-1.2-3.8-1.2c0.2,0-3.4,1.4-3.3,1.5c-2.6-1.3-1.8-0.9-5.1-0.1c-3.1,0.7-6.1,0.6-9.2,1
	C419.9,462,425.4,457.5,424.2,451.9L424.2,451.9z M416.2,497.5c-1.7-2.4,2.9-3.3,4.3-3.5c2.4-0.4,5.6,0.3,7.2,0
	c2.4-0.6,4.8-2,7.5-2.3c3.5-0.5,6.9-0.5,10.4-0.8c1.2-0.1,2.6-0.5,3.7-0.4c1.7,0.1,2.4,1,3.7,1c2.3,0,5.2-1.4,7.5-1.7
	c3-0.3,6.1-0.5,9.1-0.7c6.4-0.3,12.7-0.2,19.2-0.2c2.9,0,10.7-3,12.2,0.4c2-2.6,7.2-2.2,10.1-2.3c5.1-0.1,10.1-0.6,15.2-0.9
	c4.4-0.2,9.2,0.7,13.5,0.1c2.4-0.4,3.1-1.1,5.8-0.8c2,0.3,5-0.8,6.7-0.3c-0.1,0,2.1,1.4,1.4,1.4c0.8,0,0.7,0.5,1.6,0.2
	c1.1-0.3,0.6-1.7,2.9-2.2c3.6-0.8,8.3,0.1,12-0.1c3.6-0.2,7.2-0.3,10.8-0.3c1.7,0,3.7-0.4,5.3-0.1c0.8,0.2,2.5,1.2,3.1,1.1
	c1.9-0.3,2.9-1.6,5.4-1.5c2.9,0.1,5.5,0.1,8.4-0.2c2.8-0.2,3.3-0.6,4.6,1.7c1.4,2.3,1.8,5.3-0.8,6.9c1.6-0.1,3.7,2.1,1.7,3.3
	c-1.2,0.8-3.6-0.9-5-0.8c-1.8,0.2-3.2,1.1-5.1,1.1c-2,0.1-4.1,0.6-6.1,0.6c-2.1,0-3.6-0.9-5.6-0.5c-1.7,0.3-1.9,1.8-4,0.5
	c-1-0.6-1.2-2.9-2.6-2.9c-1.9,0-1.1,2.4-2.2,3.6c-0.3-3.5-3,2.3-4.1-2c-1,1.4-4.7,3.4-6.4,2.3c-1.6-1-1.1-3.4-1.8-5.1
	c-1.1,3-4.1,6.2-3.9,0.7c-1.5,1.8-5.4,1.5-4.4,4.7c-1.2,0-1.5-1.7-2.5-1.9c-0.9-0.1-1.6,0.6-1.7,0.5c0.5,0-1.4,0.7-1.4,0.7
	c1.3-0.3-3.7-0.7-2.9-0.7c-1.2,0-2.6,0.9-3.9,0.9c-1.2,0-2.5-0.5-3.7-0.6c-3.2-0.4-2.5,0.3-4.5,1.3c-0.7,0.4-0.9,1-2,0.9
	c-0.8-0.1-1.1-1.1-1.1-1.1c-1.1-0.1-0.3-0.5-2-0.3c-0.2,0.3-0.4,0.7-0.6,1c-0.6,0.8-1.4,1-2.4,0.6c-2.5,0.5-10.7,2.8-9.9-1.4
	c-1.3,0.6-2.5,1.2-3.8,1.8c-0.5-3.4-7.4,1.1-8.9,1.4c-2,0.3-2.1-0.5-4-0.9c-0.3-0.1-1,1-1.8,0.9c-2-0.4-2.4-0.6-2.7-2.8
	c-1.5,2.7-2.7,1.5-5.3,1.9c-0.6,0.1-1,1.2-1.8,1c-0.6-0.1-0.6-1.2-1-1.4c-0.4-0.1-0.3-1-0.9-1.1c-0.6-0.1-2.8,1.6-3.4,1.9
	c-1.4,0.6-3.7,1.6-5,1.3c-1.7-0.4-0.9-1.6-3.3-1.5c-3.8,0.2-5.3,3.4-7.6-1.6c-1.1,2-0.9,2.6-2.6,3.2c-1.3,0.5-4.4,0-6.1-0.1
	c-7-0.3-13.9,2.1-20.9,1.5c-3.1-0.3-5.6-0.9-8.7-0.4c-3.2,0.5-6.4,1.3-9.7,1.6c-1.7,0.2-5.2,0.6-6-1.5
	C415,500.9,417.7,499.7,416.2,497.5L416.2,497.5z M430,574.9c-9.1,6.1-16.7,14.4-25,21.5c-8.4,7.1-15.1,14.9-22.6,22.8
	c-7,7.2-13.4,14.1-21.8,19.6c-5.3,3.5-10.1,7.7-15.6,11c-4.1,2.4-10.3,5.7-8.3-1.8c2.1-7.7,5.8-15.4,9.1-22.6
	c4.7-10.2,9.4-20.3,14.5-30.2c1.9-3.7,3-7.5,6-10.5c3.3-3.3,5.6-7.5,9.2-10.6C390.5,561.1,413.3,571.1,430,574.9L430,574.9z
	 M458.6,579.2c-4.1,2.2-8.8,2.7-13.1,4.1c-3.7,1.2-7.2,3.4-11.2,3.6c3.7-2.7,6.8-6.5,10.9-8.6C449.7,576,453.9,577.7,458.6,579.2
	L458.6,579.2z M640.1,597.3c-15.2-5.1-29.4-12.7-44.2-18.8c-2.6-1.1-22.6-7.6-22.2-10.8c14-2.6,28.5-7,42.5-2.2
	c12.8,4.4,23.2,14.9,33.1,23.6c2.6,2.3,18.5,12.7,17.1,16c-1,2.3-8.7,1.7-10.5,1.2c-2.3-0.6-3.7-2-5.5-3.6
	C647.3,600.2,643.9,598.6,640.1,597.3L640.1,597.3z M612,511.5c2.3-2.1,3.7-5.4,5.9-7.3c2.8-2.5,7.4-1.3,10.5,0
	c9.3,3.9,17.3,10.5,26.5,14.6c10.2,4.5,19.1,10.6,28.4,16.9c8.4,5.7,17.6,10.5,26.2,15.9c8.8,5.6,18.6,9.2,27.5,14.6
	c9.1,5.5,18.1,10.9,26.8,17c15.5,10.7,31.7,21.8,43.2,37c5.9,7.8,11.4,16.7,15.8,25.6c3.9,8,8.2,19.1,3.1,27.5
	c-4.9,8-13.3,14.3-20.3,20.3c-2.7,2.3-5.2,5-8.7,6c-4.2,1.2-9.2,0.9-13.5,1.2c-23.2,1.9-44.9,0.1-67.7-4c-22.1-4-44.2-6.2-66.5-9
	c-12.5-1.6-25.1-3.4-37.5-6c-5.3-1.1-10.7-2.4-15.8-3.9c-4.5-1.3-8.3-4.3-13-5.4c-19.7-4.9-42.3-6.8-61.8-15.1
	c17.3-7.2,35.6-11.5,53.4-17.5c18.6-6.3,36.8-11.6,56.5-13.3c10.1-0.9,19.2-3.5,28.9-6.2c9.3-2.6,18.9-3.4,28.5-4.5
	c4.2-0.5,16.3,0.3,17.7-5.3c2.1-8.2-9.8-9.2-14.8-8.5c-7.2,1-13.1,2.8-18.6-3.1c-5.6-6-11.1-12.2-16.8-18.1
	c-10.6-11-21.5-23.7-36.5-28.7c-18.3-6-39.4-0.3-57.7,3.1c-19.2,3.6-38.5,7.1-57.4,12.3c-7.8,2.2-17.9,7-26,6.2
	c-8-0.8-17.1-2.1-24.8-4.4c-3.5-1-6.4-3-9.5-4.8c-4.1-2.3-8.5-3.8-12.8-5.7c-8.7-3.7-17.2-7.1-26.7-8.5c-7.9-1.2-16.4-1.9-24.1,0.8
	c-7.5,2.7-14.2,8.3-19.5,14.2c-5.7,6.4-10.4,13.7-15.1,20.9c-2.3,3.5-5,6.5-7.3,9.9c-2,2.8-3.1,6-5.2,8.8
	c-4.6,6.2-7.8,14.1-10.6,21.3c-3.1,8-6.6,17.5-5.8,26.1c0.3,3.3,0.6,7.6,1.8,10.7c1.6,3.9,3.9,3.8,7.2,5.2c5.7,2.5,7.3,9.4,14.7,8.1
	c6.9-1.3,12.9-7,17.9-11.5c6.6-5.9,12.9-12.1,19.1-18.4c6.5-6.4,12.8-13.4,17.9-20.9c2-3,3.6-6.3,6-9c3-3.4,6.5-3.8,10.6-5.2
	c36.1-11.9,72.4-23.4,109.6-31.3c8.9-1.9,17.9-4.3,26.7-6.8c9.3-2.7,14.1,0.2,21.8,5.2c16,10.6,35,18.1,52.8,25
	c5.6,2.2,14.6,2.3,19,6.6c-26,4-50.8,11.6-75.9,19.2c-12.4,3.7-24.9,7-37.3,10.6c-12.4,3.6-24.4,8.2-36.6,12.3
	c-12.2,4-25.1,5.7-37.4,9.4c-12.6,3.8-25.1,6.4-38,8.7c-13,2.3-26,5-39.1,7.1c-6,1-12,1.9-17.9,3.3c-5.8,1.3-11.4,4.4-17.2,5.1
	c-26,3.2-51.5,10.3-77.4,14.3c-19.3,3-53,7.2-65.5-12.2c-12.6-19.5,2.9-42.3,16.7-56.2c8.6-8.7,18.2-16.3,28.3-23.1
	c10.8-7.3,21.2-15.1,32.1-22.4c24.5-16.4,51.1-29.8,77.4-43c12.6-6.3,24.8-13.1,37.1-20.1c6.1-3.4,9.5,2.1,14.3,5.9
	c3.8,3,10.8,10.3,16.1,6.9c0.2,1.2,0.4,2.4,0.6,3.7c1.6-0.7,3.1-1.4,4.7-2.1c1,2.7,0.9,4.4,3.8,5.9c1.8,0.9,5.6,1.9,7.3,0.4
	c0.3,1.1,0.7,2.2,1,3.2c1.5-0.1,1.8-4.4,2.1-5.4c2.6,3.7,6.1,6.9,10.6,7.9c0-0.2-0.7-3.3-0.7-3.3c1.4-0.9,3.2,2.9,4,3.7
	c2.5,2.6,4,2.2,6.8,0.1c0.2,0.2,1.1,2.7,1.3,2.6c0.6-0.2,1.7-2.4,1.9-2.5c-0.2,2.8,5.3,3.4,7.3,2.8c-0.4-0.8-0.9-1.7-1.3-2.5
	c6.8-0.9,9.4,6.3,15.9,5.9c4.8-0.3,0.9-1.3,3.7-3.4c2.4-1.8,2.8,2.1,3,2c0.5-0.5,0.8-1,1.1-1.6c0.9,3.4,7.9,6.4,7.1,0.8
	c2.7,1.1,4.7,2.9,7.7,3.3c3.7,0.5,7.6-0.3,11.3-0.6c7.9-0.7,15.4-2.3,22.6-5.9c4.2-2.2,8.8-4.1,12.8-6.7c3.3-2.2,9.7-8.8,14.1-5.9
	c-1.1-3.4,4.2-0.2,4.4-4.6c0.9,0.6,1.7,1.3,2.6,1.9c0.5-1.1,0.4-2.9,1.1-3.9c0.9-1.4,1.4-0.6,2.2-1.3c0.9-0.9,1.7-3.1,2.8-3.8
	c1.1-0.7,2.4,0.1,3.6-0.5c1.8-0.9,9.7-9.6,8.4-2.1c3.4-1.2,0.8-2.2,1.2-4.5c0.9-4.5,2.9-1.3,5-0.9c3.4,0.6,3.3-2.1,5.2-4.2
	c1.7-1.9,5-2.7,3.8-5.9C611.6,508.9,611.9,510.2,612,511.5L612,511.5z M408.4,414.8c-2.7,3-4.7,1.7-7.6,1.3
	c-0.3-1.1-0.9-1.2-1.6-0.4c-0.9,0.5-1.8,0.8-2.8,1c-2.4,0.6-4.9,0.3-7.3,1.2c0.1-0.8,0.9-2.2,0.4-3c-2.5,1.7-4,2.8-7.1,2.9
	c-2.5,0-6.8-1.9-8.9,0.4c-0.1-0.9-0.1-1.8-0.2-2.6c-1,0.5-1.9,1.2-2.6,2c-0.1-1.3-0.2-2.3-1.1-3.4c-1.6,3.4-3.4,3.5-6.6,2.2
	c0.4,0.2-3.2-2-3.1-1.4c-1.1-4.8,17-4.4,18.9-4.6c4.8-0.5,9.5-0.8,14.3-1.2c4.5-0.4,7.9-1.1,11,2.7
	C402.6,406.3,415.8,406.6,408.4,414.8L408.4,414.8z M200.3,330.3c0.5,8.2,2.3,17-0.9,24.9c-2.6,6.4-7.7,13.6-13.2,17.7
	c-11.3,8.5-20.9-1.9-22.5-13.4c-1.6-11.9,1.6-26.5,11.9-33.9c6.1-4.4,12.1-4.1,19.2-2.6c1.7,0.3,4.4,0.2,5.3,1.9
	C200.2,325.3,200,330.3,200.3,330.3L200.3,330.3z M350.7,440.1c-2,1-4,1.6-5.7,2.9c-0.6,0.5-0.8,1.5-1.4,1.9c-1.2,0.7-2.8,0.2-4,0.8
	c-2,1-3.4,2.4-5.8,3.3c-3.5,1.3-6.6,3.2-9.9,4.9c-5.5,2.9-11.5,5.4-17.3,7.7c-2.9,1.2-11,3.5-10.7,7.8c-0.7,0.2-1.3-1.3-2.7-1.1
	c-1.9,0.2-4.4,2.3-6.3,2.9c-3.6,1-6.5,1.1-6.5,5.7c-1.2-0.8-1.5-2.7-3-3c-1.7-0.3-2.5,1.6-3.9,2.2c-1.6,0.7-3.7,0-5.3,0.8
	c-0.7,0.7-1.5,1.4-2.4,2c-0.9,0.1-1.8,0.1-2.6-0.1c-3.4,0.7-6.6,2-10.1,2.7c-3.4,0.7-5.7,0.9-4.3,4.9c-3.6,0.7-4.5-3.1-8.5-1.7
	c-5,1.7-9.6,2.9-14.8,4c-2.6,0.5-5.4,1.7-8.1,2c-1.9,0.2-3.7-0.5-5.6-0.3c-2.3,0.3-4.1,1.3-6.4,1.3c-2.2,0-4.5-0.4-6.7-0.7
	c0.3,0.9,0.7,1.7,1.2,2.5c-1.5-0.3-2.2-2.1-3.5-2.4c-1.3-0.3-2.5,1.1-3.7,0.8c-0.5-0.1-0.2-1.6-1-1.9c-0.8-0.3-1.1,0-1.9-0.1
	c-0.3,0-3.5-0.2-4,0.1c-0.9,0.5,0,1.4-0.2,1.5c-3,2.2-3.1,1-4.4-1.3c-2-3.4-4.4-1.3-8-1.9c-4-0.7-7.2,1.1-11.1,0.8
	c-4.3-0.3-9.2-3.5-13-5.3c-8.1-4-16-7.8-22.8-13.9c-13.3-11.9-24.2-26.5-30.6-43.2c-6.9-18-8.2-36.7-7.6-55.8
	c0.3-11.5,1.2-22.9,3.1-34.2c1.2-7.8,1.5-21.6,10.3-25.2c1.5,18.2-3.3,36.8-0.3,55c0.9,5.5,3.1,12.7,7.3,16.8c6.2,6,7.6-2.7,8.2-7.4
	c1-8.9,3-17.7,4.3-26.5c1.4-8.8,2.3-17.8,4.2-26.5c0.7-3.2,6.3-26.5,10.4-25.4c-0.8,17-3,33.7-3.1,50.7c0,6.8-0.6,14,0.3,20.8
	c0.5,3.5,3.7,13.7,9.2,12.9c5.1-0.8-0.5-8-1-10.8c-1.3-7.4,0.3-16.5,1.5-23.9c2.2-13.8,7.1-28,15.2-39.6
	c7.2-10.4,18.3-20.2,31.7-18.4c5.7,0.8,10.2,2.2,13.1,7.4c2.3,4.1,11.1,8.8,6,13.9c-4.7,4.7-12.3,0.9-17.5-0.2
	c-6.4-1.4-13.2,0.3-18.5,4c-9.1,6.4-14.4,17.9-16.1,28.6c-2.3,14.5,3.8,52.4,26.4,43.9c15-5.6,26.3-26,25-41.5
	c-0.5-6.2-2.9-18,5.7-19.7c11-2.2,12.6,10,11.5,17.9c-1.6,11.5-7.7,22.2-14.7,31.3c-6.1,7.9-13.1,12.9-20.4,19.4
	c-2.2,1.9-7.7,6.3-6.7,9.9c1,3.9,9.7,5.1,13.1,5.7c17.1,3.2,36.5,0.3,53.6-2c35.2-4.6,69.9-16,98.7-36.8c1.2,12.9,2.6,25.8,3.2,38.7
	c0.3,6.3,0.3,12.7,1,18.9C353.5,432.5,355.1,437.9,350.7,440.1L350.7,440.1z M253.2,485c-1.4,0.7,0.1-3.6-0.3-2.2
	C255,483.6,255.1,484.3,253.2,485L253.2,485z M399.1,328.9c2.2-2.4,8.2-8.2,10.1-2.7c0.7-2.3,0.8-5.8,3.5-2.6
	c1.1-3.9,13.1-3.5,16-3.7c9.5-0.5,19.1-0.8,28.5-1.8c19.5-1.9,39.3-0.9,58.8-1c4.2,0,8.5-0.2,12.7,0.4c4.1,0.6,8.3,2.3,12.4,1.6
	c3.7-0.5,6.1-1.6,9.9-1.1c4.5,0.5,8.9,0.9,13.5,0.9c20.2-0.1,40.4,0.7,60.6,0.8c3.9,0,8.7-0.8,12.3,0.9c1.4,0.6,2.9,2.7,3.9,2.9
	c1.2,0.3,0.5-1.6,2.1-0.8c2.1,1.1,0.5,4.6-0.9,5.2c0.8-0.3-1.5-0.7-1.3-0.7c-1.1,0.1-2.1,0.9-3.3,0.9c-1.8-0.1-3.4-1.2-4.9-2.2
	c0,0.4,0.8,3.1-0.1,3.2c-0.8,0.1-1.6-2.5-1.6-3.2c-4.5,4-9.3,1.8-14.9,2.3c-4,0.4-12.3,3-15-1.1c-0.1,0.9-0.5,1.7-1.1,2.3
	c-0.8,1.2-1.5,1.1-2.1-0.3c-0.2,0-2.1,0.4-2.2,0.4c-1.4-0.1-3.1-0.6-4.5-0.7c-2.1-0.2-1.7,1.4-3.5,1.4c-0.9,0-3.3-1.3-4.9-1.4
	c-2.8-0.1-5.7,1-8.5,0.7c-1.9-0.2-3.6-1.8-5.5-1.9c-2.3-0.1-3.1,1.7-4.9-0.8c-0.4-0.1-0.6,1.4-0.8,1.4c0,0-1.8,0.3-2,0.3
	c-0.4,0.1-1.8,0.8-2.2,0.8c-0.9,0-1.5-0.7-2.5-0.7c-1.7,0-6.9,1.4-6.8-1.6c-5.9,2.2-11,1.3-17,1.9c-2.8,0.2-4.5-0.1-7.2-0.6
	c-3.3-0.6-5.5,0.2-8.8,0.3c-3.2,0.2-4.2-1.2-6.9-2.4c-1.1-0.5-1.8-1.1-3.1-0.8c-0.7,0.2-0.2,1.4-0.4,1.5c-1.1,0.4-1.9,0-3.5,0.1
	c-2.9,0.2-4,2.6-7,0.3c1-0.1,2-0.2,3-0.4c-2.8-1.2-6.6-1.8-5.9,2.6c-2.4-0.3-0.3-2-1.5-2.6c-1.2-0.6-2.5,0.4-4,0.9
	c-4,1.3-7.3,0.6-11.4,0.4c-4.7-0.3-15.7,3.6-19-1.4c-0.1,1-1.2,4-2.7,3.8c-0.5,0,0.9-3.1,1-3.5c-0.8,1.6-4.3,2-6,2.8
	c0.2-0.9,0.4-1.8,0.6-2.6c-1.6,1.7-2.4,0.7-4.3,1.2c-0.8,0.3-2,2-2.7,2.1c-0.8-1-1.9-1.4-3.1-1.2c-0.8-0.2-1.7-0.2-2.5-0.1
	c-3.3,0.2-6.3,2.1-9.6,0.8c-2.9-1.1-4-3.9-5.7,0.6c-0.4-0.8-0.9-1.6-1.3-2.4c-0.6,0.9-1.1,1.7-1.7,2.6c-2.2-1.4-2.3-2.2-4.8-1.7
	c-0.6,0.2-1.2,0.2-1.8-0.1c-0.1,0.4-0.3,0.9-0.4,1.3c-0.1,1.1-0.4,1.5-1,1.1c-0.5-0.2-0.9-0.5-1.3-0.8c-1.6,0.1-3.7,0.6-5.5,0.3
	C403.7,330.8,399.4,328.5,399.1,328.9L399.1,328.9z M449.5,299.4c0.2,0.3,0.4,0.6,0.6,0.9c-2.7,1.4-3.3,0.6-3.6-2.2
	C447.8,298.1,448,300.3,449.5,299.4L449.5,299.4z M451.1,297.7c1.3,0.6,2.8,1.7,4,0.2C455.9,300.3,449.9,303.5,451.1,297.7
	L451.1,297.7z M459.4,298.8c2.7,1.8-3.8,0.4-3.8,0.4C456.8,298,458.1,297.9,459.4,298.8L459.4,298.8z M482.7,288.6
	c0.9,4.7,3.5,4.5,7.6,2.4c6-3.2,7-8.4,7.5-14.6c0.4-5.9,1.1-8.2,7.3-7c4.3,0.9,7.9,0.1,12.2,0c4.6-0.1,6.2,0.6,6.6,5.3
	c0.4,4.7,1.2,8.3,4.7,12c3.5,3.7,8.2,5.9,12.7,7.9c2.3,1.1,4.5,2.2,7.1,2.4c1,0.1,6.2-0.6,6.3,1.1c0.1,1.2-7.1,4.7-7.9,5.2
	c-3.4,1.8-6.7,3.5-10.4,4.6c-8.4,2.5-17.3,2.7-26.1,2.5c-14.1-0.2-33.5-6.2-41.9-18.7C473.1,290.6,477.9,289.6,482.7,288.6
	L482.7,288.6z M481.4,248.1c-2.2-1.9-3.7-4.7-5.5-6.9c-0.9-1.1-1.6-1.5-2.5-2c-0.9-0.6-1.5,0.2-2.2-1.1c-2-3.6,4.2-8.6-2.4-10
	c-2.2-0.5-7.6,1.3-8.2-1.9c-0.9-4.5,7.7-4.8,9.7-7.1c4-4.6,1.3-12.3,3.8-17.5c2.3-5,8.3-5.9,13.1-7.4c6.6-2.1,13.3-3.3,20-5
	c4.7-1.2,12.5-5.9,16.8-1.7c-6.7,1.5-2.8,3.8,1.7,5.1c5.1,1.5,10.4,2.1,15.7,2.5c5.4,0.4,10.9,0.5,16.2-0.6c4.9-1,10.4-5.3,15.6-4.2
	c-2.9,5-11.4,7.7-16.6,9c-2.6,0.7-4.3,0.5-4,3.8c0.3,3.2,3.1,6.4,3.8,9.7c0.8,4.4,0.1,8.5-1.5,12.6c-1.5,4.1-1.9,4.6-0.6,8.5
	c2.1,6.1-2.4,12.8-6.6,17.2C530.7,269.1,498.4,262.3,481.4,248.1L481.4,248.1z M524.4,141.5C524.4,141.7,524.4,141.6,524.4,141.5
	L524.4,141.5z M529.6,186.5c-0.7,0.5-4.7,1.6-4.6,0C525.3,184.4,528.9,185.2,529.6,186.5L529.6,186.5z M538.8,143.8
	c-0.9-0.7-3.6-0.4-1.7-3.1C537.8,141.9,538.3,142.8,538.8,143.8L538.8,143.8z M475.2,126.9c1.2-3.1,2.5-6.1,3.1-9.4
	c0.3-2.1-0.3-4.4,2.5-4.7c-3.7-1.6-3.7-7.9-3.9-11.2c-0.3-4.5-1.7-10.5,0.3-14.7c2-4.3,4.8-4.2,5.6,0.9c0.3,2-0.9,2.7-1.1,4.1
	c-0.5,2.8,0.5,2.2,2.2,0.1c0.7,2.1,1,5.4,4,5.2c-0.2-0.6-1.3-1.9-1-2.6c0.6-1.1,3.5,0.6,3.8,0.8c2.6,1.8,3.2,3.5,1.3,5.8
	c2.6,0.3,0.4,2.6,2.1,3.1c2.6,0.9,0.8-3.4,0.6-4.1c1.6,0.6,2.1,1.3,3.1,2.5c0.6,0.8,1.1,1.7,1.6,2.6c0.5,1.7,1.6,2.1,3.3,1.3
	c3.3,1,7.9,0.9,10.9,2.7c1.4,0.8,1.8,2.6,3,3.3c1.3,0.8,3,0.4,4.4,0.9c-0.5,1.1-0.1,1.8,1.2,1.8c1,0.1,2,0.3,3,0.7
	c0.7-0.5,1.5-1,2.3-1.3c0.6,1,1.4,1.2,2.4,0.7c3.1,0.6,4.5,1.7,6.5,3.5c1.7,1.6,0.3,1.7,2.2,1.5c0.8-0.1,2.1-1.4,3.9-1.1
	c1,0.2,2,0.5,2.9,0.9c1,0.9,2.1,1,3.2,0.3c1.8,0.9,2,2.5,4.3,2.7c2.5,0.2,1.7-2.9,3.4,1.5c2.3-4.6,3.2,2.8,5.5,3.4
	c2.5,0.6,2.7-1.4,4.8,0.8c0.6,0.7,0.6,1.7,1.3,2.4c1.2,1.1,2.7,0.9,3.8,2.5c-0.6-0.9,0.1,3.1,0.1,2.9c0.2,1.7-1.4,3.7,1.8,3.5
	c0,0.2-1.6,2.4-1.8,2.1c-0.1-0.3-0.1-0.5-0.2-0.8c-0.3,0.1-0.5,2.3-0.4,2.6c0.3,0,0.4-0.2,0.3-0.6c-0.5,1.6,0.3,2.7-0.7,4.2
	c-0.6,1-2.4,1.7-3.3,2.3c-2.2,1.5-4.4,2.9-6.6,4.5c-5.1,3.6-10.8,8-17.2,8.8c3.2-3.2,21.8-15.1,12.5-18.6c-1.7-0.6-4.9-1.2-6.7-1.4
	c-2.2-0.2-4.6,1.1-7,0.3c-3-1-1.9-3.8-3.7-4.8c-3.9-2.1-3,2.9-4.2,4.2c-1.3-1.3-1-2-3-2.1c-2.1-0.1-2.5,1.8-4.9,0.6
	c-3.3-1.6-1.6-4.9-6.2-4.9c0.1-0.7,0.8-2.7-0.1-3.3c-1.2,1.6-0.3,3.3-1.4,4.8c-0.6,0.8-1.8,1.4-2.7,1.6c-2.1,0.6-2.4,1.7-2-1.5
	c-1.5,2.8-6.3,1.6-9.1,1.4c-4.6-0.5-9.4-1.3-13.8-2.8c-4-1.4-6.2-3.7-9.5-5.8c-1.3-0.8-1.9-0.5-3.7-1
	C476.1,130,474.3,129.1,475.2,126.9L475.2,126.9z M484.8,77.8c0.7-0.4,1.2,5.8,0.3,6.9C483.6,82.3,480.9,78.8,484.8,77.8L484.8,77.8
	z M487,75.4c2.2-2,0.7,3.2,0.3,4c-0.8-0.5-1.6-1.1-2.5-1.6C485.8,77.2,486.1,76.2,487,75.4L487,75.4z M570.5,67
	c20.5,4.3,40.7,12.3,57.1,25.5c14.9,12,25.5,29.1,31.4,47.2c6.1,18.8,4.1,39.7-10.5,54.2c-7.7,7.6-17.8,12.2-27.5,16.6
	c-4.6,2.1-9.4,3.9-14.1,6c-3.3,1.5-7.4,3.9-11.2,3.5c1.9-2,4.8-2.1,7.1-3.3c2.8-1.5,5.2-4.4,7.6-6.5c2.4-2.1,7.8-8.6,11.6-7
	c-0.5-3.5,3.4-5.1,5.2-7.3c1.9-2.4,2-5.2,5.5-6c-3.7-2.9-2.6-8.4-1.8-12.3c1-5.1,1.5-9.7,1.9-14.9c0.7-9.3,1.3-21.1-3.8-29.3
	c-1.7-2.7-3.8-5.1-5.3-7.8c-1.8-3.3-1.4-6.2-1.4-9.9c-3.3,2.2-4-2.3-5.3-4.5c-1-1.6-2.4-2.6-2.7-4.6c-0.2-1.5,1.4-1.8,0.5-3.3
	c-1.1,0.8-1.5,2.1-2.1,3.3c-1-0.4,0.2-1.8-0.4-2.3c0,0-2-0.9-1.9-0.7c-1.3-1.6-1.7-4.2-2.3-6.1c-2.3,1.2-1.9,1-4.4-0.9
	c-0.5-0.3-2.7-1.9-2.9-2.4c-1-2.4,0.7-1,0.3-2.5c-1.4-4.3-9.2-3.5-9.9-9.9c-3.8,2.4-5.3-1-7.5-3.5c-2.3-2.5-6.2-3.5-6-7.4
	c-1.2,0.4-2.4,0.8-3.6,1.2c0.6-3.7-4.8-3.4-6.8-5.3C568.3,66.8,569.4,66.9,570.5,67L570.5,67z M573.6,294.1c1.9-1.7,1.3,0.6,2.5,0.3
	c1-0.2,1.2-1,2.2-1.3c4.1-1,10.3,0.3,14.6,0c5-0.2,13.6,0.8,16,6.7c1.4,3.5-0.8,2.3-3.2,2.1c-1.9-0.2-3.5,0.2-5.4,0.2
	c-0.9,0.1-1.8,0.1-2.7,0c-0.4-0.3-0.7-0.7-0.8-1.2c-2.6-0.4-5.3,1.1-8.2,1.2c-3.8,0.1-7.2-0.6-10.1-3.2c-1.2,1.7-1.9,2.6-4,2.8
	c-0.1,0-2.1-0.8-2.4-0.9c-0.4-0.1-1.5,0.8-2.3,0.5C571.3,299,571.5,296,573.6,294.1L573.6,294.1z M834.7,314.6
	c0.7-2.3,1.2-4.7,1.9-7.1c9.4,10.7,17.7,25.1,21.4,38.9c2.4,9,6.2,25.2-5.3,29.8c-9.4,3.8-14.6-9.7-17-16.4
	C830.4,345.1,830.4,329.5,834.7,314.6L834.7,314.6z M412.5,146.3c0.1,0-6.1,3.6-4.1,0.7c0.8-1.2,4-2,5.3-2L412.5,146.3z
	 M406.6,147.8c-0.7,0.6-1.4,1.2-2.2,1.8c-0.7-1.1-1.4-2.2-2.1-3.3C403.6,145.7,409.6,145.2,406.6,147.8L406.6,147.8z M402.2,260.4
	c-1.3-0.9-2.3-0.4-2.7,1.1c0-1.5,0.8-4.9,1.9-5.3c0.8-0.3-2.5-4.2-1.6-5.2c2.4,1.4,0.9,2.6,1.6,4.4c0.3,0.8,1.2,1.5,1.5,2.1
	C403.2,258.6,404.6,262.1,402.2,260.4L402.2,260.4z M395.8,251.6c-1.3,0.3,1,2.5,1,3.5c0,0.7-0.9,1.3-1.3,2.3
	c-0.8,2.2,0.6,3.7-1.7,5.3c0-4.8-3.2-17.5,3-19.8c-3-2.4-0.5-5.1,1.8-2.3C400.9,243.5,399.5,250.7,395.8,251.6L395.8,251.6z
	 M392.6,232.8c-1.2-4.3-4.9-5.8-9-5.5c0.2-2.2,1.8-5.4,3-1.4c0.5-1.2,0.8-2.7,2-3.5c1.9,6,11.4,9.3,5.5,15.7
	C393.5,236.3,393.1,234.5,392.6,232.8L392.6,232.8z M381.5,227.5c-22,1.6-52.8,6.2-70.4-10.7c-11.5-11-10.8-28.1-1.6-40.3
	c5.3-7,12.5-11.9,19.7-16.5c2.8-1.8,5.2-3,8.2-4c0.5-0.1,1,0.1,1.4,0.3c0.2-0.7,0.6-1.3,1.3-1.6c1.2-0.6,2.9-0.9,3.6-2.2
	c-0.7,2.5-1.1,5-1.4,7.6c-0.6-0.7-1.2-1.4-1.8-2.1c-0.5,4.7-5.4,1.8-8.3,2.4c1.9,2.6,3.3,3.6,3.4,7.1c-1.4-2.6-4.4-4.4-7.2-5.2
	c1.5,4.4,2.6,7.1,1.1,12c-1.8-1-1.9-3.5-4.2-4.1c-0.6,2.9-0.7,6.1-1.4,8.9c-5.7-2.6-5.1,4.4-2.8,7.8c1.2,1.8,1.8,4,2.9,5.7
	c2.7,4.3,0.6-2.1,3.6-1.8c-0.7,4.6-0.9,5,2.4,8.3c3.3,3.3,4.9,7.8,8.4,10.8c1-1.3-0.6-2.6-0.7-3.9c3.2,0.5,4.8,3.8,7.9,0.9
	c1.4,2.6,2.8,5.6,6.1,6.1c-2.1-4.1,4.1-1.3,5.7-0.7c1.2,0.4,3.4,0.8,3.9,1c2.7,1,0.8-0.8,2.4,2.4c2.4-0.7,3.3-2.7,6.1-1
	c2.3,1.3,2.3,3.7,2.8,6c0.5-1.5,1.1-3.1,1.7-4.6c0.6,0.3,3.2,3.1,2.9,3.1C383.5,219,383.3,222.7,381.5,227.5L381.5,227.5z
	 M350.7,150.4c1.2-0.9,2.7,0.3,4.1,0c1.9-0.4,3-2,5.1-2.2c-0.6,1.9-1.7,1.7-2.6,3.2c-0.3,0.5-0.2,1.7-0.4,2
	c-2.4,2.4-3.2,0.4-5.6-1.4c0.2,2.2,0.6,2.9-1.4,3.5c-1.9,0.5-5-1.4-6-3C344.6,150.9,349.2,151.4,350.7,150.4L350.7,150.4z
	 M365.8,147c2.1,0.2-0.4,6.2-3.4,0.4C363.5,147.1,364.6,147,365.8,147L365.8,147z M376.3,145.8c3.2-0.7,14-3.7,15.2,1.3
	c0.2-0.1,1-3,1.4-2.6c1.5,1.4,1.7,3.2,1.5,5.2c-1.8-3.8-1.2-0.5-2.4-0.7c-0.3-0.1-0.8,0.5-1.6,0.3c-1.1-0.3-1.8-2.6-2.5-3.3
	c-1.1,1.6-2.5,3.6-4.7,3.5c-1.6-0.1-4.1-4.2-2.1,0.3c-1.2-0.4-2.6-1.3-3.9-1.1c-1.5,0.2-2.3,1.7-3.7,1.9c-3.1,0.5-3.6-2.5-5.6-4.1
	C370.7,146.2,373.6,146.4,376.3,145.8L376.3,145.8z M395.9,145.7c0.2-1,3.1-1.4,3.8-1.1c1.8,0.8,1.1,1.9,0.8,3.6
	c-1.3-0.6-2.6-1.2-3.9-1.9C398.5,149.5,395,150,395.9,145.7L395.9,145.7z M943.8,329.5c-0.2-7.5-0.4-15.2-2.4-22.5
	c-1.3-5.1-4.6-14.3-10.8-15.2c-9.3-1.3-14.5,17.1-17.1,23.5c-0.5-7.5-0.1-15.4-2.9-22.5c-2.3-5.7-8-11.1-12.9-4.7
	c-4.4,5.7-5.2,14.1-6.4,20.9c-1.5,8.8-2.4,17.8-3.5,26.7c-4.3-8.3-5-17.7-8.4-26.3c-3.2-8.1-8.2-15.8-13-23
	c-3.9-5.9-8.7-11.4-14.9-15c-5.4-3.1-14.8-6.5-19.9-1.3c-4.3,4.3-3.6,10.1-3.4,15.6c0.1,2.4,0.5,4.1-1.7,5.3
	c-1.1,0.6-2.7,0.3-3.9,0.6c-1.9,0.5-3.3,1.4-4.9,2.6c-11.1,8.2-16.2,23-17.7,36.2c-2,16.7,4.5,31.1,10.1,46.4
	c0.9,2.4,3.7,7.6,3.3,10.3c-0.4,3-4.2,3.1-6.7,3.1c-7.6,0.2-15.6-0.4-23.2-1.1c-18.1-1.7-36.1-10.4-52.3-18.2
	c-3-1.4-7.1-2.2-9.5-4.5c-2.3-2.1-2.9-5.5-4.8-7.9c-4.8-5.9-7.9-10.9-14.9-14.5c-7.2-3.6-14.5-7-21.6-11c-8.7-4.9-16.7-11.2-25-16.7
	c-15.5-10.2-30.8-21.5-47.2-30.2c-7.6-4-16.1-4.7-24-8c-7.7-3.2-17.2-3.2-25.2-1.2c-3.9,1-6.6,3.3-10.2,4.9
	c-4.2,1.8-7.7-0.2-11.4-2.3c-5.7-3.3-11.3-8.6-3.2-12.2c2.7-1.2,6.2-1.7,8.6-3.5c2.6-2,4.6-5.7,6.7-8.3c4.6-5.6,7.4-12.1,14.1-15.6
	c7.5-3.9,16.3-4.9,24.3-7.4c8.6-2.7,17.1-6,25.5-9.2c15.3-5.7,31.1-11.9,42.1-24.6c9.5-10.9,13.6-25,13.2-39.3
	c-0.8-29.2-16.4-58.9-38.9-77.2c-27.6-22.4-62.6-29.9-97.4-29.5c-16.3,0.2-35.8,2.3-49.5,12.2c-11.8,8.6-13.7,23.6-12,37.1
	c0.7,5.5,3.1,12.7-0.7,17.6c-2.2,2.7-6.1,3.4-9,5.1c-3.7,2.1-6.9,4.2-11.1,5.3c-17.7,4.8-36.2,3.1-54.3,2.8
	c-30.1-0.4-60.9,7.7-83.3,28.9c-18.1,17.1-23.5,49.4-1.5,66c17.8,13.5,45.8,12,66.9,9.6c6.5-0.7,11-1.8,11,6.2
	c0,8.7-1.4,17.8,0.8,26.4c3.5,13.5,16.5,13.8,27.9,10.9c6-1.5,11.9-3.8,17.6-6.2c8.4-3.5,16.1-8.7,24.5-12.3c5.6-2.4,9.9,5.3,14.9,0
	c0.9-1,1.1-2.5,2.5-3c2.2-0.8,5.8,2,7.8,2.9c2.9,1.3,5.8,2.3,6.9,5.5c1.1,3,0.6,7.7-0.4,10.6c-2.2,6.4-8.2,5.1-13.7,4.7
	c-9.6-0.7-19.1-2.3-28.6-3c-8.6-0.6-16.6,2-24,6.2c-15.5,8.9-28.3,23-41.7,34.6c-6.9,6-13.6,12.4-21.2,17.7
	c-3.3,2.3-6.8,4.3-9.7,7.2c-2.8,2.8-3.1,5.3-4.1,9c-1.7,6.6-10.3,9.9-15.6,13.3c-7.6,4.9-15.6,8.4-24.1,11.4
	c-18,6.4-36.1,10.9-54.8,14.2c-9.2,1.6-18.3,2.7-27.6,3.6c-8,0.8-16.5,3.2-24.5,1.2c2.3-3.7,6.4-6,9.6-8.9
	c4.1-3.7,7.6-8.1,10.7-12.7c6-8.9,10.3-18.4,11.2-29.2c0.9-9.7-0.1-21.3-6-29.5c-2-2.8-6-3.6-7.8-6.2c-1.8-2.5-1.1-6.9-2.1-9.9
	c-2.5-7.5-10-16.8-16.5-21.2c-7.1-4.7-17.5-6.5-25.7-4c-15.2,4.6-24.6,20.8-31.5,34c-3.8-8,2.6-19.9-4.9-26.4
	c-6.3-5.5-11.2,5.2-13.3,9.8c-9.8,21.5-12.1,44.3-16.2,67.3c-1.7-1.7-0.8-5.9-0.7-7.9c0.3-3.7,0.3-7.3,0.3-11c0-9.3,1.8-18.7,1-28
	c-0.5-5.4-2.2-16.7-10-15c-6.6,1.5-10.8,10.9-12.9,16.6c-3,8.2-3.7,16.4-3.5,25.1c0.2,9.6-1.6,19.1-2.1,28.7
	c-0.9,18.6,0,37.1,5.3,55.1c8.8,29.5,28.9,53.9,55.8,68.7c14.8,8.1,31.2,13.3,48.1,14.4c9.2,0.6,18-0.5,27.1-1.4
	c9-0.9,18-1.4,26.9-2.5c19.9-2.4,39.3-8.7,57.4-17.2c9.5-4.5,18.5-9.9,27.8-14.7c3.8-1.9,6.3-4.3,9.5-7c3.2-2.6,4.1-2.8,7.7-2.8
	c-1.1-2.8,2-3.7,3.4-5.5c-0.1,0.9-0.2,1.7-0.2,2.6c1.1-2.3,2-2.3,2.9,0.1c0.9-2.6,1.6-5.3,2.6-7.8c4.1,2.1,3.8,7.1,9.3,3.4
	c4.5-3,8.7-6.5,13.4-9.4c10.6-6.7,19.7-15.3,30.3-21.9c0,6.4,0.5,12.9-0.4,19.3c-0.8,6.1-3.1,11.7-4.9,17.6
	c-3.3,10.7-3.6,22.2-7.2,32.8c-1.5,4.4-5.5,8.1-6.6,12.4c-1.2,4.4,1.5,7.9-3,10.7c-3.2,2-7.1,2.9-10.6,4.1
	c-5.4,1.9-10.4,4.5-15.6,6.7c-24.4,10.5-48.3,21.1-70.9,35.2c-21.5,13.4-43.3,27.2-63,43c-17.1,13.8-34.4,31.6-38.6,54
	c-4,21.8,6.7,45.2,28.4,52.3c11.3,3.7,24,3.3,35.7,3.4c12.6,0.2,26-2.9,38.4-5.1c13.1-2.3,26-6,39.1-8c12.6-2,24.2-6.4,36.5-9.2
	c13.2-2.9,26.7-4.5,40-7.1c6-1.2,11.8-2.9,17.8-4c6.6-1.2,13.2-1.6,19.7-3.2c12.6-3.1,24.7-8,37.3-10.9c5.7-1.3,11.3-3,17-4.2
	c5.2-1.1,9.3-4.1,14.6-1.6c4.2,2,7.6,5.3,11.6,7.6c5.2,3,10.7,5.7,16.1,8.3c10.9,5.2,22.2,8.9,33.6,12.8c12,4.1,23.7,8.8,36.2,11.6
	c12.7,2.8,25.7,3.6,38.5,5.8c26.2,4.5,52.3,6.6,78.9,6.7c13.5,0.1,26.9-1.5,40.4-1.3c11.9,0.2,22.2,2.8,33.1-3.5
	c17.4-10.1,37.5-25.3,37.1-47.4c-0.4-20-12.4-39.1-23.7-54.9c-13.7-19.2-33.2-32.7-52.3-45.9c-20.4-14.1-43.2-23.8-64.7-36.1
	c-10.9-6.3-21-13.1-32.9-17.5c-5.7-2.1-11.2-4.6-16.8-6.9c-4.5-1.8-11-2.9-14.9-5.9c-2.4-1.9-2.6-4.8-3.3-7.7
	c-1.4-6.3-3.6-12.3-5.8-18.3c-4.1-11.7-6.9-23.7-8.7-36c-1.7-11.7-5.5-23.9-3.5-35.8c12.8,12.4,26,24.4,39.2,36.4
	c4.9,4.5,9.8,9.2,14.7,13.7c3.7,3.4,8.4,8.4,13.5,9.4c6.6,1.3,4.2-6,8.7-7.2c2.8-0.7,11.1,6.4,13.3,7.8
	c13.9,8.8,29.3,14.4,44.6,20.4c16,6.3,32.5,11.9,49.8,13.5c15.9,1.5,32.2-0.4,47.6-4.8c30.6-8.7,53.2-29.2,69.7-55.8
	C931.2,401.2,944.9,365.7,943.8,329.5L943.8,329.5z"/>
<path id="ink-shape_00000114755412231365390160000006377973524460646078_" class="st1" d="M475.5,263.4c0,0-0.1,0.1-0.1,0.1
	C475.5,263.5,475.5,263.5,475.5,263.4"/>
<path id="ink-shape_00000183941966624157769860000001893237565614763916_" class="st1" d="M477,263.8c-0.1-1-0.4-1.9-0.7-2.8
	c-1,1.6-1.9,2.3-0.6,4C476.1,264.6,476.6,264.2,477,263.8"/>
<path id="ink-shape_00000147922114609866191010000015848016179881815213_" class="st1" d="M547.7,493.7c1.1-1.2-0.8-1.7-1.6-1.7
	c0.1,1.3-0.6,4.4,1.2,5C546.8,495.8,547,494.7,547.7,493.7"/>
<path id="ink-shape_00000165215183530931710460000012081129677761940891_" class="st1" d="M517.7,241c-1.9,3.8,2.4,4.9,4.9,3.1
	c1.9-1.4,3-4.9,3.3-7.1c1-7.2-4.1-14.1-6.6-20.6c-0.7-1.7-1.5-7.4-3.6-7.5c-2.4-0.2-2.6,5.1-2.6,6.4c-0.1,4.1,1,8.2,2.3,12.1
	C516.6,231.7,520,236.6,517.7,241"/>
<path id="ink-shape_00000134972269467381969020000015678581475163443378_" class="st1" d="M527,225.9c7.5,6.7,13.5-4.4,13-11
	c-0.1-1.6-1.2-7.6-4.3-5.4c-1.6,1.1-0.2,4.7-1,6.2c-3.6,7.6-7-4.2-9.5-5.1c-2.9-1.1-3.2,2.7-3.2,4.8C522,219.5,524,223.2,527,225.9"
	/>
<path id="ink-shape_00000093163866922668409570000015781449975490835888_" class="st1" d="M499.8,227c1.8-2.8,3.9-6.5,4.2-9.8
	c0.4-5.2-2.6-4.7-5.1-1.1c-1.8,2.6-3.1,6.9-6.9,5.8c-4.8-1.3-3.3-7.8-6-10.8C479.1,220.1,491.9,239.3,499.8,227"/>
<path id="ink-shape_00000065069850615801438020000012178756973121289090_" class="st1" d="M509.9,254.8c2.8,0.6,10.1,0.4,7.6-3.9
	C514.3,245.5,503.7,253.4,509.9,254.8"/>
<path id="ink-shape_00000101806296345727738820000012920876301888777150_" class="st1" d="M607.8,94c0.5-1.5-0.2-1.8-1.4-3
	C605.3,92.1,606.7,93.2,607.8,94"/>
<path id="ink-shape_00000054988343227135485980000007136168219264453794_" class="st1" d="M660,369.9c1.8,0.3,2.4-0.7,1.8-2.9
	C658.8,366.8,658.2,367.8,660,369.9"/>
<path id="ink-shape_00000147925132806831944260000002258354302747514254_" class="st1" d="M559.3,134.5c2,0.9,1.3,2.8,1.2,4.5
	c1-1.1,3.2-3.2,2.3-4.9C561.5,131.6,558,134,559.3,134.5"/>
<path id="ink-shape_00000150817337561277891300000000864657370830058153_" class="st1" d="M490,102.8c-0.3-0.6-0.6-1.2-0.9-1.8
	c-1.3,1-3.2,3.7-1.2,5C488.7,105,489.4,103.9,490,102.8"/>
<path id="ink-shape_00000162344877484217708270000003143879886367180699_" class="st1" d="M514.4,120.6c2.5,2,1.3-4.1,1.2-4.6
	C515.3,116.7,513.1,119.6,514.4,120.6"/>
<path id="ink-shape_00000119113092842587351380000012229715561270750113_" class="st1" d="M513,117.5c-0.2-0.5-0.4-1-0.6-1.5
	c-1,0.9-2.3,2.9-0.6,4C512.3,119.2,512.7,118.4,513,117.5"/>
<path id="ink-shape_00000009565327210123754130000001767988551499056830_" class="st1" d="M529.1,138.4c0.2,0.2,0.4,0.4,0.6,0.6
	c0.8-1.7-0.1-2.9-1.7-3C528.1,136.9,528.5,137.8,529.1,138.4"/>
<path id="ink-shape_00000071540846032631918780000009636079145250236855_" class="st1" d="M461.3,327.8c1-0.7,1.9-1.5,2.7-2.3
	c-3-1.8-1.2,2.1-4.8-0.3C458.5,326.3,459.7,328.6,461.3,327.8"/>
<path id="ink-shape_00000019642278935974603750000012146595979442927008_" class="st1" d="M586.1,493c1.1-1.7,1.3-1.7-0.2-3
	C584.6,492.1,584.7,491.6,586.1,493"/>
<path id="ink-shape_00000152982024452376332130000010782725177418660788_" class="st1" d="M350,217.1c0.6,0.6,1.2,1.3,1.8,1.9
	c0.3-0.8,1.9-3.2,0.8-4C351.8,215.7,350.9,216.4,350,217.1"/>
<path id="ink-shape_00000152961987483963284790000014318731097912091781_" class="st1" d="M371.9,223.4c-1-0.2-3.3-0.9-3.9,0
	C369.4,224.6,372.7,223.6,371.9,223.4"/>
<path id="ink-shape_00000074424958011477790860000016805714210501327786_" class="st0" d="M-776.2,245c0.1,0.1,0.2,0.1,0.2,0.2
	C-776,245.1-776.1,245-776.2,245z M-776.2,245c0.1,0.1,0.2,0.1,0.2,0.2C-776,245.1-776.1,245-776.2,245z M-776.2,245
	c0.1,0.1,0.2,0.1,0.2,0.2C-776,245.1-776.1,245-776.2,245z M-776.2,245c0.1,0.1,0.2,0.1,0.2,0.2C-776,245.1-776.1,245-776.2,245z
	 M-776.2,245c0.1,0.1,0.2,0.1,0.2,0.2C-776,245.1-776.1,245-776.2,245z"/>
<path class="st0" d="M-679.5,348.9L-679.5,348.9z"/>
</svg>
