<?xml version="1.0" encoding="utf-8"?>
<!-- Generator: Adobe Illustrator 27.0.0, SVG Export Plug-In . SVG Version: 6.00 Build 0)  -->
<svg version="1.1" id="Layer_1" xmlns="http://www.w3.org/2000/svg" xmlns:xlink="http://www.w3.org/1999/xlink" x="0px" y="0px"
	 viewBox="0 0 595.3 174.9" style="enable-background:new 0 0 595.3 174.9;" xml:space="preserve">
<style type="text/css">
	.st0{enable-background:new    ;}
	.st1{fill:#E84927;}
	.st2{fill:#011C40;}
</style>
<g id="Capa_1">
	<g class="st0">
		<path class="st1" d="M32.9,127.9V69.5h43.3v9.9H44.7v12.9H74v9.8H44.7V118h32.6v9.8L32.9,127.9L32.9,127.9z"/>
		<path class="st1" d="M87.4,127.9V69.5h11.5l23.9,39v-39h11v58.4H122L98.4,89.8v38.1H87.4z"/>
		<path class="st1" d="M183.6,106.4L195,110c-1.8,6.4-4.7,11.1-8.7,14.2c-4.1,3.1-9.2,4.6-15.5,4.6c-7.8,0-14.1-2.6-19.1-7.9
			s-7.5-12.5-7.5-21.7c0-9.7,2.5-17.3,7.5-22.6c5-5.4,11.6-8.1,19.8-8.1c7.1,0,12.9,2.1,17.4,6.3c2.7,2.5,4.6,6.1,6,10.8l-11.7,2.8
			c-0.7-3-2.1-5.4-4.3-7.2s-4.9-2.6-8-2.6c-4.3,0-7.8,1.6-10.5,4.7s-4,8.1-4,15.1c0,7.4,1.3,12.6,4,15.8c2.7,3.1,6.1,4.7,10.4,4.7
			c3.1,0,5.8-1,8.1-3C181,113.9,182.6,110.7,183.6,106.4z"/>
		<path class="st1" d="M205.2,127.9V69.5H230c6.2,0,10.8,0.5,13.6,1.6c2.8,1,5.1,2.9,6.8,5.6s2.5,5.7,2.5,9.2c0,4.4-1.3,8-3.9,10.9
			c-2.6,2.9-6.4,4.7-11.5,5.4c2.5,1.5,4.7,3.1,6.3,4.9c1.7,1.8,3.9,4.9,6.7,9.5l7.1,11.4h-14.1l-8.5-12.7c-3-4.5-5.1-7.4-6.2-8.6
			c-1.1-1.2-2.3-2-3.5-2.4s-3.2-0.7-5.9-0.7H217V128L205.2,127.9L205.2,127.9z M216.9,94.2h8.7c5.7,0,9.2-0.2,10.6-0.7
			c1.4-0.5,2.5-1.3,3.3-2.5s1.2-2.6,1.2-4.4c0-2-0.5-3.5-1.6-4.8c-1-1.2-2.5-2-4.4-2.3c-1-0.1-3.8-0.2-8.6-0.2h-9.2V94.2z"/>
		<path class="st1" d="M263.6,127.9V69.5h11.8v58.4H263.6z"/>
		<path class="st1" d="M286.7,127.9V69.5h18.9c7.2,0,11.8,0.3,14,0.9c3.3,0.9,6.1,2.8,8.4,5.7c2.3,2.9,3.4,6.7,3.4,11.4
			c0,3.6-0.7,6.6-2,9s-3,4.4-5,5.8s-4,2.3-6.1,2.8c-2.8,0.6-6.9,0.8-12.2,0.8h-7.7v22C298.4,127.9,286.7,127.9,286.7,127.9z
			 M298.4,79.4V96h6.5c4.6,0,7.8-0.3,9.3-0.9s2.8-1.6,3.7-2.9c0.9-1.3,1.3-2.8,1.3-4.5c0-2.1-0.6-3.9-1.9-5.3
			c-1.2-1.4-2.8-2.2-4.7-2.6c-1.4-0.3-4.2-0.4-8.5-0.4C304.1,79.4,298.4,79.4,298.4,79.4z"/>
		<path class="st1" d="M354.2,127.9V79.4h-17.3v-9.9h46.4v9.9H366v48.5H354.2z"/>
		<path class="st1" d="M437.5,127.9h-12.8l-5.1-13.3h-23.3l-4.8,13.3H379l22.7-58.4h12.5L437.5,127.9z M415.8,104.8l-8-21.7
			l-7.9,21.7H415.8z"/>
	</g>
	<g class="st0">
		<path class="st2" d="M557.7,109.2c2.2,5.4,2.3,10.7,0.1,15.7c-2.2,5.1-6,8.7-11.4,10.9l-53.8,22c-5.6,2.3-10.8,2.9-15.5,1.7
			c-5.5-1.3-9.5-4.9-12-11c-0.9-2.3-1.4-4.8-1.4-7.5c-1.8-1.8-3.3-4.1-4.5-6.9c-2-4.8-1.8-10.2,0.5-16.2c1.6-4.1,4.5-9.3,8.9-15.7
			c-5.3,1.8-10.3,1.6-15.2-0.6c-4.8-2.2-8.3-5.9-10.5-11.2c-1.2-3-2.2-6-2.9-9c-1.2-1.6-2.2-3.4-3-5.3c-5.3-13-5.4-25.6-0.2-38
			c5.2-12.4,14.3-21.2,27.2-26.5c13-5.3,25.7-5.4,38.1-0.2c12.4,5.2,21.3,14.2,26.6,27.2c0.9,2.3,1.7,4.7,2.2,7.1
			c1.4,2.3,2.6,4.7,3.6,7.2c3.6,8.9,4.4,18.6,2.3,29.3c7,1.4,11.9,5.5,14.8,12.5c1,2.5,1.6,5,1.6,7.7
			C555.2,104.5,556.6,106.7,557.7,109.2z M542.5,98.7c-1.2-2.9-3-4.8-5.6-5.9s-5.3-1-8.1,0.1l-23.5,9.6c7.1-12.6,11.8-22.2,14-28.8
			c3.9-11.6,4-22,0.3-31.2c-4.3-10.4-11.3-17.6-21.2-21.7c-9.9-4.1-20-4-30.4,0.2c-10.4,4.3-17.7,11.3-21.8,21.1
			c-4.1,9.8-4,19.9,0.2,30.3c1.2,2.9,3,4.8,5.5,5.9s5.2,1,8-0.1c2.9-1.2,4.8-3,5.9-5.6s1-5.3-0.1-8.1c-2-4.8-1.9-9.5,0-14.2
			c2-4.7,5.3-8,10.1-10c4.8-2,9.5-1.9,14.3,0c4.8,2,8.1,5.3,10.1,10.1c3.5,8.5-1.9,24.2-16.3,47.2c-5,8.1-9.5,15-13.4,20.7
			c-2.9,4.3-3.6,8.3-2.1,12c2.3,5.5,7.1,6.8,14.4,3.8l53.8-22c2.9-1.2,4.8-3,5.9-5.5C543.7,104.2,543.7,101.6,542.5,98.7z
			 M490.2,63.5c-1.6-0.3-3.1-0.1-4.6,0.6c-2.2,0.9-3.7,2.4-4.6,4.6s-0.9,4.3,0,6.5c0.7,1.8,1.2,3.7,1.5,5.6
			C486.2,73.7,488.8,67.9,490.2,63.5z"/>
	</g>
</g>
</svg>
